<svg xmlns="http://www.w3.org/2000/svg" xmlns:xlink="http://www.w3.org/1999/xlink" xmlns:lucid="lucid" width="1279.94" height="1163.01"><g transform="translate(-1208.0586849959836 -568.991796875)" lucid:page-tab-id="0_0"><path d="M1000 500h1500v1500H1000z" fill="#f2f3f5"/><path d="M1471.73 652a12 12 0 0 1 12-12H2474a12 12 0 0 1 12 12v1066a12 12 0 0 1-12 12h-990.27a12 12 0 0 1-12-12z" stroke="#dfe3e8" stroke-width="4" fill="#fff"/><path d="M1471.73 581a12 12 0 0 1 12-12h174.4a12 12 0 0 1 12 12v35a12 12 0 0 1-12 12h-174.4a12 12 0 0 1-12-12z" fill="#dfe3e8"/><use xlink:href="#a" transform="matrix(1,0,0,1,1483.7256412012475,580.991796875) translate(0 28.525065104166668)"/><use xlink:href="#b" transform="matrix(1,0,0,1,1483.7256412012475,580.991796875) translate(70.72278645833335 28.525065104166668)"/><path d="M1392.32 818.32h202.64a24 24 0 0 0 24-24V762.9a24 24 0 0 1 24-24h186.65" stroke="#3a414a" stroke-width="3" fill="none"/><path d="M1392.35 819.8h-1.53v-2.96h1.53z" stroke="#3a414a" stroke-width=".05" fill="#3a414a"/><path d="M1844.1 738.9l-13 7.5v-15z" stroke="#3a414a" stroke-width="3" fill="#3a414a"/><path d="M1213.44 946.98a6 6 0 0 1 6-6h160.28a6 6 0 0 1 6 6V980a6 6 0 0 1-6 6h-160.28a6 6 0 0 1-6-6z" fill="none"/><use xlink:href="#c" transform="matrix(1,0,0,1,1218.4387822178348,945.9805431010809) translate(28.570930989583324 28.525065104166668)"/><path d="M1208.06 688.9a6 6 0 0 1 6-6h170.76a6 6 0 0 1 6 6v258.82a6 6 0 0 1-6 6h-170.76a6 6 0 0 1-6-6z" fill-opacity="0"/><path d="M1323.4 735.54c0 13.16-10.66 23.83-23.82 23.83s-23.83-10.67-23.83-23.83c0-13.16 10.67-23.83 23.83-23.83 13.16 0 23.83 10.68 23.83 23.84zM1273.18 772.62a6 6 0 0 1 6-6h40.8a6 6 0 0 1 6 6v69.53a6 6 0 0 1-6 6h-40.8a6 6 0 0 1-6-6z" fill="#9391ff"/><path d="M1316.26 783.4a6 6 0 0 1 0-8.5l3.8-3.8a6 6 0 0 1 8.48 0l31.27 31.27a6 6 0 0 1 0 8.5l-3.8 3.8a6 6 0 0 1-8.47 0zM1270.33 770.86a6 6 0 0 1 8.5 0l3.8 3.8a6 6 0 0 1 0 8.5l-31.28 31.26a6 6 0 0 1-8.5 0l-3.8-3.8a6 6 0 0 1 0-8.5zM1273.18 847.86a6 6 0 0 1 6-6h5.38a6 6 0 0 1 6 6v66.25a6 6 0 0 1-6 6h-5.38a6 6 0 0 1-6-6zM1308.6 847.86a6 6 0 0 1 6-6h5.38a6 6 0 0 1 6 6v66.25a6 6 0 0 1-6 6h-5.38a6 6 0 0 1-6-6z" fill="#9391ff"/><path d="M1392.32 818.32h202.64a24 24 0 0 1 24 24v61.83a24 24 0 0 0 24 24h186.65" stroke="#3a414a" stroke-width="3" fill="none"/><path d="M1392.35 819.8h-1.53v-2.96h1.53z" stroke="#3a414a" stroke-width=".05" fill="#3a414a"/><path d="M1844.1 928.15l-13 7.5v-15z" stroke="#3a414a" stroke-width="3" fill="#3a414a"/><path d="M1392.32 818.32h202.64a24 24 0 0 1 24 24V1336a24 24 0 0 0 24 24h186.65" stroke="#3a414a" stroke-width="3" fill="none"/><path d="M1392.35 819.8h-1.53v-2.96h1.53z" stroke="#3a414a" stroke-width=".05" fill="#3a414a"/><path d="M1844.1 1360l-13 7.5v-15z" stroke="#3a414a" stroke-width="3" fill="#3a414a"/><path d="M2007.1 928.15c0 44.18-35.8 80-80 80-44.18 0-80-35.82-80-80s35.82-80 80-80c44.2 0 80 35.82 80 80z" fill="#9391ff"/><use xlink:href="#d" transform="matrix(1,0,0,1,1855.1047445097329,856.148400933176) translate(17.9356640625 61.1875)"/><use xlink:href="#e" transform="matrix(1,0,0,1,1855.1047445097329,856.148400933176) translate(22.76123046875 98.93828124999999)"/><path d="M2251.52 1138.52c0 54.62-44.25 98.9-98.82 98.9-54.58 0-98.82-44.28-98.82-98.9 0-54.63 44.24-98.9 98.82-98.9 54.57 0 98.82 44.28 98.82 98.9z" fill="#9391ff"/><use xlink:href="#f" transform="matrix(1,0,0,1,2063.7630246906115,1049.5066564912815) translate(29.368769531249995 58.75)"/><use xlink:href="#g" transform="matrix(1,0,0,1,2063.7630246906115,1049.5066564912815) translate(39.76123046875 96.50078124999999)"/><use xlink:href="#h" transform="matrix(1,0,0,1,2063.7630246906115,1049.5066564912815) translate(32.967890624999995 134.25156249999998)"/><path d="M1392.32 818.32h202.64a24 24 0 0 1 24 24v272.2a24 24 0 0 0 24 24h393.43" stroke="#3a414a" stroke-width="3" fill="none"/><path d="M1392.35 819.8h-1.53v-2.96h1.53z" stroke="#3a414a" stroke-width=".05" fill="#3a414a"/><path d="M2050.88 1138.52l-13 7.5v-15z" stroke="#3a414a" stroke-width="3" fill="#3a414a"/><path d="M2007.1 1360c0 44.18-35.8 80-80 80-44.18 0-80-35.82-80-80s35.82-80 80-80c44.2 0 80 35.82 80 80z" fill="#9391ff"/><use xlink:href="#i" transform="matrix(1,0,0,1,1855.1047445097329,1288) translate(16.39953125 61.1875)"/><use xlink:href="#j" transform="matrix(1,0,0,1,1855.1047445097329,1288) translate(96.53234375 61.1875)"/><use xlink:href="#k" transform="matrix(1,0,0,1,1855.1047445097329,1288) translate(36.21826171875 98.93828124999999)"/><path d="M2029.86 738.9c0 44.2-40.9 80-91.38 80-50.46 0-91.38-35.8-91.38-80 0-44.18 40.92-80 91.38-80 50.47 0 91.38 35.82 91.38 80z" fill="#9391ff"/><use xlink:href="#l" transform="matrix(1,0,0,1,1856.2425525495175,666.9020676473284) translate(22.24669921875 61.1875)"/><use xlink:href="#m" transform="matrix(1,0,0,1,1856.2425525495175,666.9020676473284) translate(34.93701171875 98.93828124999999)"/><path d="M1392.32 818.9h202.64a24 24 0 0 1 24 24v702.44a24 24 0 0 0 24 24h186.65M1392.35 818.9h-1.53" stroke="#3a414a" stroke-width="3" fill="none"/><path d="M1844.1 1569.34l-13 7.5v-15z" stroke="#3a414a" stroke-width="3" fill="#3a414a"/><path d="M2007.1 1569.34c0 44.18-35.8 80-80 80-44.18 0-80-35.82-80-80s35.82-80 80-80c44.2 0 80 35.82 80 80z" fill="#9391ff"/><g><use xlink:href="#n" transform="matrix(1,0,0,1,1855.1047943054248,1497.3415239483186) translate(10.851679687499997 61.1875)"/><use xlink:href="#e" transform="matrix(1,0,0,1,1855.1047943054248,1497.3415239483186) translate(22.76123046875 98.93828124999999)"/></g><defs><path d="M783 20c-382 0-661-292-661-764 0-473 279-766 661-766 302 0 548 182 601 489h-190c-42-204-217-313-411-313-268 0-476 208-476 590 0 381 209 588 476 588 195 0 369-110 411-313h190c-52 303-296 489-601 489" id="o"/><path d="M613 24c-304 0-509-231-509-576 0-350 205-580 509-580 305 0 511 230 511 580 0 345-206 576-511 576zm0-161c226 0 329-195 329-415 0-222-103-419-329-419-223 0-326 196-326 419 0 220 103 415 326 415" id="p"/><path d="M158 0v-1118h180V0H158zm91-1301c-68 0-125-53-125-119s57-119 125-119c69 0 126 53 126 119s-57 119-126 119" id="q"/><path d="M338-670V0H158v-1118h173l1 207c72-158 192-221 342-221 226 0 378 139 378 422V0H872v-695c0-172-96-275-252-275-161 0-282 109-282 300" id="r"/><g id="a"><use transform="matrix(0.014127604166666669,0,0,0.014127604166666669,0,0)" xlink:href="#o"/><use transform="matrix(0.014127604166666669,0,0,0.014127604166666669,21.134895833333335,0)" xlink:href="#p"/><use transform="matrix(0.014127604166666669,0,0,0.014127604166666669,38.483593750000004,0)" xlink:href="#q"/><use transform="matrix(0.014127604166666669,0,0,0.014127604166666669,45.49088541666667,0)" xlink:href="#r"/></g><path d="M98-1322v-168h1126v168H757V0H567v-1322H98" id="s"/><path d="M158 0v-1118h174v172h12c41-113 157-188 290-188 26 0 70 2 91 3v181c-11-2-60-10-108-10-161 0-279 109-279 260V0H158" id="t"/><path d="M471 26C259 26 90-98 90-318c0-256 228-303 435-329 202-27 287-16 287-108 0-139-79-219-234-219-161 0-248 86-283 164l-173-57c86-203 278-265 451-265 150 0 419 46 419 395V0H815v-152h-12C765-73 660 26 471 26zm31-159c199 0 310-134 310-271v-155c-30 35-226 55-295 64-131 17-246 59-246 186 0 116 97 176 231 176" id="u"/><path d="M613 24c-304 0-509-231-509-576 0-350 205-580 509-580 216 0 392 114 453 309l-173 49c-33-115-133-197-280-197-223 0-326 196-326 419 0 220 103 415 326 415 150 0 252-85 285-206l172 49C1010-95 832 24 613 24" id="v"/><path d="M158 0v-1490h180v865h22l478-493h223L593-638 1096 0H865L456-523 338-412V0H158" id="w"/><path d="M628 24c-324 0-524-230-524-574 0-343 198-582 503-582 237 0 487 146 487 559v75H286c9 234 145 362 343 362 132 0 231-58 273-172l174 48C1024-91 857 24 628 24zM287-650h624c-17-190-120-322-304-322-192 0-309 151-320 322" id="x"/><g id="b"><use transform="matrix(0.014127604166666669,0,0,0.014127604166666669,0,0)" xlink:href="#s"/><use transform="matrix(0.014127604166666669,0,0,0.014127604166666669,17.037890625,0)" xlink:href="#t"/><use transform="matrix(0.014127604166666669,0,0,0.014127604166666669,27.9302734375,0)" xlink:href="#u"/><use transform="matrix(0.014127604166666669,0,0,0.014127604166666669,44.17701822916666,0)" xlink:href="#v"/><use transform="matrix(0.014127604166666669,0,0,0.014127604166666669,60.70631510416666,0)" xlink:href="#w"/><use transform="matrix(0.014127604166666669,0,0,0.014127604166666669,75.93587239583333,0)" xlink:href="#x"/><use transform="matrix(0.014127604166666669,0,0,0.014127604166666669,92.80423177083333,0)" xlink:href="#t"/></g><path d="M763 24c-353 0-583-224-583-531v-983h190v968c0 214 149 370 393 370 243 0 391-156 391-370v-968h190v983c0 307-230 531-581 531" id="y"/><path d="M538 24C308 24 148-78 108-271l171-41c32 123 123 178 257 178 156 0 256-77 256-169 0-77-54-128-164-154l-186-44c-203-48-300-148-300-305 0-192 176-326 414-326 230 0 351 112 402 269l-163 42c-31-80-94-158-238-158-133 0-233 69-233 162 0 83 57 129 188 160l169 40c203 48 298 149 298 302 0 196-179 339-441 339" id="z"/><path d="M537 14c-226 0-379-139-379-422v-710h180v695c0 172 97 275 253 275 160 0 281-109 281-300v-670h181V0H879v-209C806-46 684 14 537 14" id="A"/><path d="M471 26C259 26 90-98 90-318c0-256 228-303 435-329 202-27 287-16 287-108 0-139-79-219-234-219-161 0-248 86-283 164l-173-57c86-203 278-265 451-265 150 0 419 46 419 395V0H815v-152h-12C765-73 660 26 471 26zm31-159c199 0 310-134 310-271v-155c-30 35-226 55-295 64-131 17-246 59-246 186 0 116 97 176 231 176zm-23-1131l140-294h201l-194 294H479" id="B"/><g id="c"><use transform="matrix(0.014127604166666669,0,0,0.014127604166666669,0,0)" xlink:href="#y"/><use transform="matrix(0.014127604166666669,0,0,0.014127604166666669,21.530468750000004,0)" xlink:href="#z"/><use transform="matrix(0.014127604166666669,0,0,0.014127604166666669,36.80240885416667,0)" xlink:href="#A"/><use transform="matrix(0.014127604166666669,0,0,0.014127604166666669,53.9109375,0)" xlink:href="#B"/><use transform="matrix(0.014127604166666669,0,0,0.014127604166666669,70.15768229166667,0)" xlink:href="#t"/><use transform="matrix(0.014127604166666669,0,0,0.014127604166666669,81.50214843750001,0)" xlink:href="#q"/><use transform="matrix(0.014127604166666669,0,0,0.014127604166666669,88.50944010416669,0)" xlink:href="#p"/></g><path d="M180 0v-1490h901v168H370v510h643v168H370V0H180" id="C"/><path d="M481 0L54-1118h197c107 314 236 620 325 951 87-331 217-637 324-951h197L670 0H481" id="D"/><path d="M598-1118v154H368v674c0 100 37 144 132 144 23 0 62-6 92-12L629-6c-37 13-88 20-134 20-193 0-307-107-307-290v-688H20v-154h168v-266h180v266h230" id="E"/><g id="d"><use transform="matrix(0.0126953125,0,0,0.0126953125,0,0)" xlink:href="#C"/><use transform="matrix(0.0126953125,0,0,0.0126953125,14.7138671875,0)" xlink:href="#u"/><use transform="matrix(0.0126953125,0,0,0.0126953125,28.9326171875,0)" xlink:href="#D"/><use transform="matrix(0.0126953125,0,0,0.0126953125,43.037109375,0)" xlink:href="#p"/><use transform="matrix(0.0126953125,0,0,0.0126953125,58.626953125,0)" xlink:href="#t"/><use transform="matrix(0.0126953125,0,0,0.0126953125,68.8212890625,0)" xlink:href="#q"/><use transform="matrix(0.0126953125,0,0,0.0126953125,75.1181640625,0)" xlink:href="#E"/><use transform="matrix(0.0126953125,0,0,0.0126953125,83.7509765625,0)" xlink:href="#u"/><use transform="matrix(0.0126953125,0,0,0.0126953125,98.3505859375,0)" xlink:href="#t"/></g><path d="M180 0v-1490h270l367 940c28 72 75 218 110 339 35-117 81-264 110-339l362-940h271V0h-187c2-448-5-837 7-1287-157 497-311 829-483 1287H842C666-458 514-784 354-1284c12 438 5 843 7 1284H180" id="F"/><path d="M577 24c-279 0-473-224-473-580 0-354 195-576 474-576 218 0 287 134 324 193h14v-551h180V0H922v-173h-20C865-111 790 24 577 24zm27-161c203 0 314-172 314-421 0-247-108-413-314-413-212 0-317 181-317 413 0 235 108 421 317 421" id="G"/><g id="e"><use transform="matrix(0.0126953125,0,0,0.0126953125,0,0)" xlink:href="#F"/><use transform="matrix(0.0126953125,0,0,0.0126953125,23.486328125,0)" xlink:href="#p"/><use transform="matrix(0.0126953125,0,0,0.0126953125,39.076171875,0)" xlink:href="#x"/><use transform="matrix(0.0126953125,0,0,0.0126953125,54.234375,0)" xlink:href="#G"/><use transform="matrix(0.0126953125,0,0,0.0126953125,70.154296875,0)" xlink:href="#u"/><use transform="matrix(0.0126953125,0,0,0.0126953125,84.75390625,0)" xlink:href="#z"/></g><path d="M600 0L52-1490h200c166 485 304 806 458 1336 156-533 285-846 449-1336h202L819 0H600" id="H"/><path d="M338-1490V0H158v-1490h180" id="I"/><path d="M126 0v-134l627-806v-11H146v-167h839v143L376-178v11h629V0H126" id="J"/><g id="f"><use transform="matrix(0.0126953125,0,0,0.0126953125,0,0)" xlink:href="#H"/><use transform="matrix(0.0126953125,0,0,0.0126953125,17.9384765625,0)" xlink:href="#q"/><use transform="matrix(0.0126953125,0,0,0.0126953125,24.2353515625,0)" xlink:href="#z"/><use transform="matrix(0.0126953125,0,0,0.0126953125,37.958984375,0)" xlink:href="#A"/><use transform="matrix(0.0126953125,0,0,0.0126953125,53.3330078125,0)" xlink:href="#u"/><use transform="matrix(0.0126953125,0,0,0.0126953125,67.9326171875,0)" xlink:href="#I"/><use transform="matrix(0.0126953125,0,0,0.0126953125,74.2294921875,0)" xlink:href="#q"/><use transform="matrix(0.0126953125,0,0,0.0126953125,80.5263671875,0)" xlink:href="#J"/><use transform="matrix(0.0126953125,0,0,0.0126953125,94.884765625,0)" xlink:href="#u"/><use transform="matrix(0.0126953125,0,0,0.0126953125,109.484375,0)" xlink:href="#t"/></g><g id="g"><use transform="matrix(0.0126953125,0,0,0.0126953125,0,0)" xlink:href="#F"/><use transform="matrix(0.0126953125,0,0,0.0126953125,23.486328125,0)" xlink:href="#p"/><use transform="matrix(0.0126953125,0,0,0.0126953125,39.076171875,0)" xlink:href="#x"/><use transform="matrix(0.0126953125,0,0,0.0126953125,54.234375,0)" xlink:href="#G"/><use transform="matrix(0.0126953125,0,0,0.0126953125,70.154296875,0)" xlink:href="#u"/><use transform="matrix(0.0126953125,0,0,0.0126953125,84.75390625,0)" xlink:href="#z"/></g><g id="h"><use transform="matrix(0.0126953125,0,0,0.0126953125,0,0)" xlink:href="#C"/><use transform="matrix(0.0126953125,0,0,0.0126953125,14.7138671875,0)" xlink:href="#u"/><use transform="matrix(0.0126953125,0,0,0.0126953125,28.9326171875,0)" xlink:href="#D"/><use transform="matrix(0.0126953125,0,0,0.0126953125,43.037109375,0)" xlink:href="#p"/><use transform="matrix(0.0126953125,0,0,0.0126953125,58.626953125,0)" xlink:href="#t"/><use transform="matrix(0.0126953125,0,0,0.0126953125,68.8212890625,0)" xlink:href="#q"/><use transform="matrix(0.0126953125,0,0,0.0126953125,75.1181640625,0)" xlink:href="#E"/><use transform="matrix(0.0126953125,0,0,0.0126953125,83.7509765625,0)" xlink:href="#u"/><use transform="matrix(0.0126953125,0,0,0.0126953125,98.3505859375,0)" xlink:href="#z"/></g><path d="M52 0l541-1490h220L1361 0h-200l-149-416H398L254 0H52zm404-582h497c-103-290-145-390-251-756-108 377-145 460-246 756" id="K"/><g id="i"><use transform="matrix(0.0126953125,0,0,0.0126953125,0,0)" xlink:href="#K"/><use transform="matrix(0.0126953125,0,0,0.0126953125,17.9384765625,0)" xlink:href="#I"/><use transform="matrix(0.0126953125,0,0,0.0126953125,24.2353515625,0)" xlink:href="#x"/><use transform="matrix(0.0126953125,0,0,0.0126953125,39.3935546875,0)" xlink:href="#t"/><use transform="matrix(0.0126953125,0,0,0.0126953125,49.587890625,0)" xlink:href="#E"/><use transform="matrix(0.0126953125,0,0,0.0126953125,58.220703125,0)" xlink:href="#u"/></g><g id="j"><use transform="matrix(0.0126953125,0,0,0.0126953125,0,0)" xlink:href="#G"/><use transform="matrix(0.0126953125,0,0,0.0126953125,15.919921875,0)" xlink:href="#x"/></g><path d="M180 0v-1490h510c348 0 508 209 508 474 0 266-160 477-507 477H370V0H180zm190-706h312c236 0 327-133 327-310 0-176-91-307-329-307H370v617" id="L"/><path d="M502 418V313h118c73 0 98-17 98-66s-25-65-98-65h-82l21-161C285-4 104-228 104-552c0-350 205-580 509-580 216 0 392 114 453 309l-173 49c-33-115-133-197-280-197-223 0-326 196-326 419 0 220 103 415 326 415 150 0 252-85 285-206l172 49C1015-110 859 5 663 22v64c130 5 189 54 189 162 0 118-71 170-231 170H502" id="M"/><g id="k"><use transform="matrix(0.0126953125,0,0,0.0126953125,0,0)" xlink:href="#L"/><use transform="matrix(0.0126953125,0,0,0.0126953125,16.60546875,0)" xlink:href="#t"/><use transform="matrix(0.0126953125,0,0,0.0126953125,25.9619140625,0)" xlink:href="#x"/><use transform="matrix(0.0126953125,0,0,0.0126953125,41.1201171875,0)" xlink:href="#M"/><use transform="matrix(0.0126953125,0,0,0.0126953125,55.9736328125,0)" xlink:href="#p"/></g><g id="l"><use transform="matrix(0.0126953125,0,0,0.0126953125,0,0)" xlink:href="#o"/><use transform="matrix(0.0126953125,0,0,0.0126953125,18.9921875,0)" xlink:href="#u"/><use transform="matrix(0.0126953125,0,0,0.0126953125,33.591796875,0)" xlink:href="#G"/><use transform="matrix(0.0126953125,0,0,0.0126953125,49.51171875,0)" xlink:href="#u"/><use transform="matrix(0.0126953125,0,0,0.0126953125,64.111328125,0)" xlink:href="#z"/><use transform="matrix(0.0126953125,0,0,0.0126953125,77.8349609375,0)" xlink:href="#E"/><use transform="matrix(0.0126953125,0,0,0.0126953125,86.3408203125,0)" xlink:href="#t"/><use transform="matrix(0.0126953125,0,0,0.0126953125,96.12890625,0)" xlink:href="#u"/><use transform="matrix(0.0126953125,0,0,0.0126953125,110.728515625,0)" xlink:href="#t"/></g><g id="m"><use transform="matrix(0.0126953125,0,0,0.0126953125,0,0)" xlink:href="#y"/><use transform="matrix(0.0126953125,0,0,0.0126953125,19.34765625,0)" xlink:href="#z"/><use transform="matrix(0.0126953125,0,0,0.0126953125,33.0712890625,0)" xlink:href="#A"/><use transform="matrix(0.0126953125,0,0,0.0126953125,48.4453125,0)" xlink:href="#B"/><use transform="matrix(0.0126953125,0,0,0.0126953125,63.044921875,0)" xlink:href="#t"/><use transform="matrix(0.0126953125,0,0,0.0126953125,73.2392578125,0)" xlink:href="#q"/><use transform="matrix(0.0126953125,0,0,0.0126953125,79.5361328125,0)" xlink:href="#p"/></g><path d="M158 0v-1118h175l1 205c55-151 181-225 313-225 147 0 245 90 285 228 53-141 190-228 352-228 194 0 352 125 352 384V0h-181v-749c0-161-105-225-225-225-151 0-243 103-243 244V0H807v-767c0-124-93-207-219-207-131 0-250 92-250 270V0H158" id="N"/><path d="M158 418v-1536h174v179h20c37-59 106-193 324-193 279 0 474 222 474 576 0 356-194 580-473 580-213 0-288-135-325-197h-14v591H158zm492-555c209 0 317-186 317-421 0-232-105-413-317-413-206 0-314 166-314 413 0 249 111 421 314 421" id="O"/><g id="n"><use transform="matrix(0.0126953125,0,0,0.0126953125,0,0)" xlink:href="#o"/><use transform="matrix(0.0126953125,0,0,0.0126953125,18.9921875,0)" xlink:href="#p"/><use transform="matrix(0.0126953125,0,0,0.0126953125,34.58203125,0)" xlink:href="#N"/><use transform="matrix(0.0126953125,0,0,0.0126953125,57.357421875,0)" xlink:href="#O"/><use transform="matrix(0.0126953125,0,0,0.0126953125,73.53125,0)" xlink:href="#u"/><use transform="matrix(0.0126953125,0,0,0.0126953125,88.130859375,0)" xlink:href="#t"/><use transform="matrix(0.0126953125,0,0,0.0126953125,97.9189453125,0)" xlink:href="#u"/><use transform="matrix(0.0126953125,0,0,0.0126953125,112.5185546875,0)" xlink:href="#t"/></g></defs></g></svg>